<svg width="248" height="24" viewBox="0 0 248 24" fill="none" xmlns="http://www.w3.org/2000/svg">
<g clip-path="url(#clip0_14_101)">
<mask id="mask0_14_101" style="mask-type:alpha" maskUnits="userSpaceOnUse" x="0" y="0" width="38" height="25">
<path d="M0 0.00169373H37.7568V24.0013H0V0.00169373Z" fill="white"/>
</mask>
<g mask="url(#mask0_14_101)">
<path fill-rule="evenodd" clip-rule="evenodd" d="M37.756 0.405239V0.00323923H31.4944V0.405239L32.0096 0.407639C33.3323 0.407639 33.6222 0.734039 33.6478 1.79844V12.134H21.8346V1.96404C21.8346 0.80244 22.0758 0.430439 23.3559 0.407639H24.1256V0.00443923H20.6824H17.836V0.407639V0.408839C17.8494 0.408839 18.3463 0.407639 18.3463 0.407639C19.6471 0.424439 19.8919 0.790439 19.8944 1.94844V23.4177C18.0784 23.4177 17.663 22.358 16.9176 20.7932C14.5974 15.932 13.1821 13.01 7.2566 12.338H8.49041C11.8423 12.3272 16.5473 11.1416 16.5473 6.21924C16.5473 0.61644 10.0896 0.00563924 8.42099 0.000839233C8.42099 0.000839233 3.34567 0.00443923 -0.00134277 0.00443923V0.407639V0.408839C0.0169269 0.407639 0.100968 0.407639 0.417642 0.407639C1.8037 0.407639 2.05583 0.76524 2.05704 1.95684V22.13C2.01929 23.0912 1.72332 23.4105 0.53335 23.4273L-0.00134277 23.4284V24.0009H6.46004V23.4284L5.52829 23.4273C4.26037 23.4033 4.02652 23.0276 4.02652 21.872H4.02164L4.02408 12.5912H5.70246C7.49776 12.5912 9.12863 12.7268 10.3003 13.6544C13.5779 16.2488 13.7618 24.0009 19.2476 24.0009H24.2389V23.4284H23.4582C22.0892 23.4237 21.8346 23.0612 21.8346 21.872V12.5876H33.6478V22.0364C33.6222 23.1021 33.3323 23.4284 32.0096 23.4284H31.4944V24.0009H37.756V23.4284H37.2323C35.9668 23.4284 35.6453 23.1296 35.599 22.172V1.66284C35.6453 0.70524 35.9668 0.407639 37.2323 0.407639L37.756 0.405239ZM4.0253 12.134L4.02164 1.93404C4.0253 0.81324 4.26037 0.440039 5.482 0.410039H6.59402H7.5343H7.53308C12.338 0.410039 14.6156 2.79564 14.6156 6.25884C14.6156 9.53484 12.1261 12.1352 8.47214 12.1352L4.0253 12.134Z" fill="black"/>
</g>
<path fill-rule="evenodd" clip-rule="evenodd" d="M233.348 23.4918C230.277 23.4918 229.024 22.6204 229.024 20.4797V3.75077C229.024 1.40092 230.264 0.971423 232.711 0.971423C240.059 0.971423 243.943 5.03476 243.943 12.7241C243.943 19.2654 239.784 23.4918 233.348 23.4918ZM233.516 0.517193C231.634 0.517193 229.9 0.568912 228.224 0.618383C226.857 0.658859 225.443 0.700459 223.934 0.715075L223.757 0.717324V1.12995L223.932 1.13445C225.067 1.16368 226.227 1.43128 226.227 3.19198V21.2701C226.227 22.969 225.478 23.2962 224 23.3299L223.825 23.3344V23.7481H224.337C225.795 23.7481 227.181 23.7965 228.521 23.8448C229.887 23.8921 231.301 23.9449 232.811 23.9449C238.111 23.9449 247.005 22.4439 247.005 12.3969C247.005 6.97761 244.666 0.517193 233.516 0.517193ZM222.833 16.4928H223.23L221.437 23.7493H202.865V23.2984L203.039 23.295C204.775 23.2624 205.501 22.9735 205.501 21.2701V3.1931C205.501 1.43352 204.289 1.16481 203.107 1.13333L202.932 1.12883V0.713951H211.469V1.12771L211.295 1.13333C209.137 1.20079 208.297 1.86976 208.297 3.51916V20.5157C208.297 23.2636 209.36 23.2636 212.521 23.2636C217.024 23.2636 218.516 22.8847 220.419 20.2166C221.205 19.099 222.065 17.7734 222.782 16.5805L222.833 16.4928ZM190.676 0.50595H199.624V0.921953L199.449 0.925326C197.59 0.96018 196.515 1.30985 196.515 2.98398V21.061C196.515 22.7351 197.59 23.0848 199.449 23.1196L199.624 23.123V23.539H190.676V23.123L190.851 23.1196C192.669 23.0848 193.718 22.7362 193.718 21.061V2.98398C193.718 1.30872 192.669 0.96018 190.851 0.925326L190.676 0.921953V0.50595ZM179.541 0.507074H187.84V0.921953L187.665 0.92645C186.423 0.957931 185.272 1.22552 185.272 2.95137V21.0947C185.272 22.7542 186.088 23.0882 187.598 23.1208L187.773 23.1253V23.5401H179.541V23.1253L179.716 23.1208C181.463 23.0848 182.475 22.7407 182.475 21.0947V12.0877H170.025V21.0947C170.025 22.7981 170.799 23.0882 172.651 23.1208L172.828 23.1241V23.5401H164.66V23.1253L164.835 23.1208C166.078 23.0893 167.228 22.8206 167.228 21.0947V2.95137C167.228 1.22665 166.127 0.957931 164.935 0.92645L164.759 0.920828V0.507074H173.194V0.923077L173.017 0.92645C171.033 0.962429 170.025 1.28624 170.025 2.95137V11.5784H182.475V2.95137C182.475 1.30647 181.463 0.962429 179.716 0.92645L179.541 0.921953V0.507074ZM161.986 15.8565H162.411V23.2118H161.926L160.934 21.4815C158.355 23.1984 155.961 24 153.421 24C146.477 24 142.162 19.4982 142.162 12.2519C142.162 5.27537 147.023 0.21025 153.72 0.21025C156.338 0.21025 158.472 1.20753 160.851 2.71301L161.973 1.19629H162.311V8.84737H161.909L161.886 8.69671C161.319 4.98979 158.839 0.662232 153.72 0.662232C147.852 0.662232 145.225 6.58297 145.225 12.4497C145.225 17.9657 148.075 23.548 153.521 23.548C158.548 23.548 161.175 19.6477 161.956 15.997L161.986 15.8565ZM50.7545 23.1871C48.5635 23.1871 47.8959 22.6744 47.8959 20.9958V11.9696H50.3859C52.852 11.9696 56.5791 11.9696 56.5791 17.4463C56.5791 21.0936 54.4565 23.1871 50.7545 23.1871ZM47.8959 0.959056C48.7027 0.959056 49.4707 0.96018 50.2125 0.987164C53.5493 1.11196 55.3135 2.88166 55.3135 6.104C55.3135 10.7576 52.1433 11.4513 50.2524 11.4513H47.8959V0.959056ZM53.1556 11.5278C56.3851 10.6857 58.2749 8.60676 58.2749 5.81055C58.2749 4.02061 57.2193 2.23967 55.7061 1.4785C53.6988 0.47222 51.6195 0.47222 49.4193 0.47222C47.0115 0.47222 45.1103 0.47222 42.8074 0.507074L42.6293 0.510447V0.911834L42.7959 0.925326C44.5385 1.05462 45.1 1.22215 45.1 2.71976V21.4882C45.1 22.6115 44.478 23.0522 42.8028 23.1219L42.6293 23.1298V23.5401H42.8096C44.0136 23.5401 45.1593 23.5728 46.2697 23.6054C47.4154 23.638 48.6 23.6728 49.8838 23.6728C56.2676 23.6728 59.642 21.4624 59.642 17.2832C59.642 14.1419 57.1349 11.9618 53.1556 11.5278ZM117.138 0.917455C116.186 1.19854 115.455 2.13511 114.439 3.76539L109.025 12.5003V21.0621C109.025 22.8228 110.252 23.0915 111.454 23.1196L111.628 23.1241V23.5401H103.761V23.1253L103.937 23.1196C105.07 23.0904 106.23 22.8217 106.23 21.0621V13.022L100.914 3.7935C99.6872 1.67975 99.2957 1.16144 98.2607 0.920828L98.1226 0.888223V0.50595H105.789V0.919704L105.616 0.925326C103.351 1.01077 103.351 1.75396 103.351 1.99794C103.351 2.35323 103.858 3.4888 104.529 4.63675L108.815 11.8763L112.396 6.08039C113.619 4.10381 114.238 2.75349 114.238 2.06315C114.238 1.19292 113.679 1.06025 112.198 0.925326L112.035 0.909585V0.50595H117.267V0.880352L117.138 0.917455ZM89.6197 23.1871C87.4275 23.1871 86.7599 22.6744 86.7599 20.9958V11.9696H89.2499C91.7172 11.9696 95.4454 11.9696 95.4454 17.4463C95.4454 21.0936 93.3217 23.1871 89.6197 23.1871ZM86.7599 0.959056C87.5678 0.959056 88.3347 0.96018 89.0765 0.987164C92.4144 1.11196 94.1775 2.88166 94.1775 6.104C94.1775 10.7576 91.0085 11.4513 89.1176 11.4513H86.7599V0.959056ZM92.0207 11.5278C95.2503 10.6857 97.14 8.60676 97.14 5.81055C97.14 4.02061 96.0845 2.23967 94.5735 1.4785C92.5639 0.47222 90.4847 0.47222 88.2834 0.47222C85.8766 0.47222 83.9754 0.47222 81.6725 0.507074L81.4945 0.510447V0.911834L81.6611 0.925326C83.4025 1.05462 83.9651 1.22215 83.9651 2.71976V21.4882C83.9651 22.6115 83.3421 23.0522 81.6668 23.1219L81.4945 23.1298V23.5401H81.6748C82.8787 23.5401 84.0268 23.5728 85.1371 23.6054C86.2829 23.638 87.4686 23.6728 88.7512 23.6728C95.1339 23.6728 98.5095 21.4624 98.5095 17.2832C98.5095 14.1419 96.0011 11.9618 92.0207 11.5278ZM66.3796 11.5784L69.2302 4.0341L72.1619 11.5784H66.3796ZM81.2948 23.1219C79.9744 22.942 79.478 22.3663 78.5023 19.8793L70.7617 0.312564L70.6373 0L70.4467 0.276586C69.9263 1.02876 69.4391 1.61904 68.6163 2.24417L68.5033 2.33074L68.9655 3.31116L62.487 20.3099C61.7966 22.1302 61.1564 22.8667 60.0437 23.1241L59.9045 23.1568V23.5401H65.704V23.1298L64.8641 23.0893C64.443 23.0713 63.0667 22.9105 63.0667 21.5557C63.0667 21.2004 63.1443 20.1705 63.8553 18.2625L66.1878 12.0877H72.3593L74.7969 18.3626C75.2146 19.4892 75.7863 21.0329 75.7863 21.5872C75.7863 22.6407 75.0251 23.0859 73.1604 23.1196L72.9847 23.123V23.5401H81.4511V23.1421L81.2948 23.1219ZM128.892 19.9558C128.869 19.9738 128.845 19.9918 128.794 20.0334C127.406 21.0644 126.014 21.5433 124.411 21.5433C121.047 21.5433 119.288 18.4739 119.288 15.4416C119.288 14.4049 119.54 13.5145 120.057 12.7218C120.273 12.4081 120.773 11.8448 120.923 11.6942C121.606 11.0466 122.417 10.5698 123.078 10.2202C125.206 12.9557 128.233 16.4614 130.248 18.7134C129.746 19.2306 129.312 19.6297 128.892 19.9558ZM122.723 4.1679C122.723 2.25429 124.159 1.25476 125.577 1.25476C127.43 1.25476 128.937 2.70852 128.937 4.49508C128.937 5.39567 128.655 6.09838 128.027 6.77298C127.894 6.9079 127.717 7.07205 127.661 7.11815C126.977 7.69156 126.055 8.19526 125.221 8.61688C124.453 7.58924 123.841 6.69203 123.405 5.94772C123.389 5.90724 123.365 5.87464 123.347 5.8499C123.113 5.44514 122.927 5.07636 122.802 4.77616C122.748 4.57041 122.723 4.3714 122.723 4.1679ZM141.483 20.5753L141.416 20.7327C141.118 21.4287 140.452 21.9762 139.688 22.164C138.671 22.4057 137.709 21.9031 135.391 19.9074C134.498 19.0698 133.499 18.0804 132.496 17.037C133.872 15.1819 135.014 13.6809 136.044 12.6634C136.868 12.0079 137.753 11.6492 138.92 11.5008L139.076 11.4806V11.0837H131.908V11.4884L132.074 11.5019C132.436 11.5289 134.243 11.7234 134.243 12.8061C134.243 13.2266 134.223 13.637 133.959 14.053C133.702 14.4555 132.552 16.0195 132.091 16.6131C129.62 14.0148 127.243 11.2658 125.525 9.0149C126.352 8.60339 127.301 8.09295 128.222 7.41835C129.938 6.26928 130.928 5.28774 130.928 3.67319C130.928 1.50436 128.836 0.209126 126.814 0.209126C125.267 0.209126 123.515 1.4324 122.836 1.95521C121.392 3.03232 120.596 4.41301 120.596 5.84316C120.596 6.34348 120.734 6.82695 121.018 7.31491C121.342 7.88045 121.929 8.7192 122.764 9.81093C121.834 10.2741 120.797 10.8296 119.931 11.4839C117.7 13.1558 116.66 15.1223 116.66 17.6756C116.66 21.2802 119.304 23.9989 122.811 23.9989C125.958 23.9989 127.889 22.3675 129.366 20.7709L129.233 20.6529L129.397 20.7349C129.482 20.6439 129.569 20.5494 129.66 20.446C130.007 20.0558 130.362 19.6488 130.712 19.2317C131.888 20.5292 132.806 21.4511 132.995 21.604C135.19 23.539 136.475 24.3901 138.799 23.8269C140.11 23.5087 141.194 22.4732 141.857 20.9103L141.927 20.7428L141.483 20.5753Z" fill="#939597"/>
</g>
<defs>
<clipPath id="clip0_14_101">
<rect width="247.25" height="24" fill="white"/>
</clipPath>
</defs>
</svg>
