<svg width="37" height="24" viewBox="0 0 37 24" fill="none" xmlns="http://www.w3.org/2000/svg">
<g clip-path="url(#clip0_14_94)">
<mask id="mask0_14_94" style="mask-type:alpha" maskUnits="userSpaceOnUse" x="0" y="0" width="37" height="25">
<path d="M0 0.001297H36.9755V24.0009H0V0.001297Z" fill="white"/>
</mask>
<g mask="url(#mask0_14_94)">
<path fill-rule="evenodd" clip-rule="evenodd" d="M36.9744 0.405468V0.00346811H30.8423V0.405468L31.3468 0.407868C32.6422 0.407868 32.9261 0.734267 32.9511 1.79867V12.1343H21.3824V1.96427C21.3824 0.802667 21.6186 0.430668 22.8722 0.407868H23.626V0.00466811H20.254H17.4665V0.407868V0.409068C17.4796 0.409068 17.9663 0.407868 17.9663 0.407868C19.2402 0.424668 19.4799 0.790668 19.4823 1.94867V23.4179C17.7039 23.4179 17.2971 22.3583 16.5671 20.7935C14.2949 15.9323 12.9089 13.0103 7.10605 12.3383H8.31433C11.5968 12.3275 16.2045 11.1419 16.2045 6.21946C16.2045 0.616668 9.88044 0.00586811 8.24634 0.00106812C8.24634 0.00106812 3.27604 0.00466811 -0.00170898 0.00466811V0.407868V0.409068C0.0161827 0.407868 0.0984842 0.407868 0.408606 0.407868C1.76599 0.407868 2.01289 0.765468 2.01408 1.95707V22.1303C1.97711 23.0915 1.68726 23.4107 0.52192 23.4275L-0.00170898 23.4287V24.0011H6.32597V23.4287L5.4135 23.4275C4.17182 23.4035 3.9428 23.0279 3.9428 21.8723H3.93803L3.94042 12.5915H5.58406C7.34222 12.5915 8.93934 12.7271 10.0868 13.6547C13.2966 16.2491 13.4767 24.0011 18.8489 24.0011H23.7369V23.4287H22.9724C21.6317 23.4239 21.3824 23.0615 21.3824 21.8723V12.5879H32.9511V22.0367C32.9261 23.1023 32.6422 23.4287 31.3468 23.4287H30.8423V24.0011H36.9744V23.4287H36.4615C35.2222 23.4287 34.9073 23.1299 34.8619 22.1723V1.66307C34.9073 0.705468 35.2222 0.407868 36.4615 0.407868L36.9744 0.405468ZM3.94161 12.1343L3.93803 1.93427C3.94161 0.813468 4.17182 0.440268 5.36817 0.410268H6.45718H7.378H7.37681C12.0823 0.410268 14.3128 2.79587 14.3128 6.25906C14.3128 9.53506 11.8748 12.1355 8.29644 12.1355L3.94161 12.1343Z" fill="black"/>
</g>
</g>
<defs>
<clipPath id="clip0_14_94">
<rect width="36.9761" height="24" fill="white"/>
</clipPath>
</defs>
</svg>
