<svg width="48" height="24" viewBox="0 0 48 24" fill="none" xmlns="http://www.w3.org/2000/svg">
  <path
    d="M43.2903 16.2962C43.2622 16.298 43.234 16.2937 43.2077 16.2837C43.1813 16.2737 43.1574 16.2583 43.1375 16.2384C43.1176 16.2185 43.1022 16.1945 43.0922 16.1682C43.0822 16.1419 43.0779 16.1137 43.0797 16.0856V9.91197H40.9826C40.9547 9.91299 40.9268 9.90823 40.9008 9.898C40.8748 9.88778 40.8512 9.8723 40.8314 9.85254C40.8117 9.83278 40.7962 9.80915 40.786 9.78314C40.7757 9.75713 40.771 9.72929 40.772 9.70136V8.85079C40.7709 8.82282 40.7756 8.79494 40.7858 8.76887C40.796 8.74281 40.8115 8.71913 40.8312 8.69932C40.851 8.67951 40.8747 8.66399 40.9007 8.65373C40.9268 8.64348 40.9546 8.63871 40.9826 8.63973H46.5642C46.5923 8.63807 46.6204 8.64241 46.6468 8.65244C46.6731 8.66247 46.6969 8.67798 46.7168 8.69793C46.7367 8.71788 46.7521 8.74183 46.762 8.76818C46.7719 8.79453 46.7761 8.82269 46.7744 8.85079V9.70227C46.7754 9.73016 46.7706 9.75796 46.7604 9.78394C46.7502 9.80992 46.7348 9.83352 46.7151 9.85327C46.6954 9.87303 46.6718 9.88852 46.6458 9.89877C46.6199 9.90902 46.5921 9.91383 46.5642 9.91288H44.4671V16.0856C44.4682 16.1136 44.4634 16.1414 44.4532 16.1674C44.4429 16.1934 44.4275 16.217 44.4077 16.2368C44.3879 16.2566 44.3643 16.2721 44.3383 16.2823C44.3123 16.2925 44.2845 16.2973 44.2565 16.2962H43.2894H43.2903ZM27.2225 13.2139L26.1215 10.0557L25.0111 13.2139H27.2225ZM29.6639 16.0463C29.7118 16.1711 29.6354 16.2958 29.5012 16.2958H28.5105C28.4479 16.3003 28.3856 16.2826 28.3348 16.2457C28.2839 16.2088 28.2477 16.1552 28.2326 16.0942L27.6676 14.4672H24.5754L24.0104 16.0942C23.9953 16.1551 23.9592 16.2087 23.9084 16.2455C23.8577 16.2824 23.7955 16.3002 23.7329 16.2958H22.7951C22.6704 16.2958 22.5841 16.1711 22.6324 16.0463L25.2267 8.83091C25.2746 8.69668 25.3609 8.63928 25.5042 8.63928H26.7877C26.9314 8.63928 27.0272 8.69622 27.0751 8.83091L29.6693 16.0463H29.6639ZM37.1067 15.2622C37.7191 15.2622 38.1312 14.9662 38.4661 14.4586L36.9159 12.7932C36.3221 13.1285 35.9388 13.463 35.9388 14.1332C35.9388 14.7931 36.4748 15.2631 37.1071 15.2631L37.1067 15.2622ZM37.5378 9.65888C37.0407 9.65888 36.7528 9.97525 36.7528 10.3956C36.7528 10.721 36.9245 11.008 37.3177 11.4292C37.9975 11.036 38.2849 10.7973 38.2849 10.3761C38.2849 9.98293 38.0363 9.65301 37.5383 9.65301L37.5378 9.65888ZM41.7753 16.0278C41.8996 16.162 41.8232 16.2958 41.6696 16.2958H40.4493C40.3811 16.3018 40.3126 16.2899 40.2505 16.2613C40.1883 16.2326 40.1347 16.1883 40.095 16.1326L39.3718 15.3291C38.8837 15.9799 38.2035 16.468 37.0737 16.468C35.6758 16.468 34.5744 15.626 34.5744 14.1811C34.5744 13.0707 35.1682 12.4773 36.0685 11.9801C35.6279 11.473 35.4268 10.937 35.4268 10.4683C35.4268 9.28105 36.2597 8.46799 37.5134 8.46799C38.797 8.46799 39.5815 9.22456 39.5815 10.3436C39.5815 11.3008 38.8923 11.8359 38.1647 12.2382L39.2372 13.3965L39.8401 12.3435C39.9169 12.2192 40.0028 12.1717 40.1564 12.1717H41.0847C41.2384 12.1717 41.3243 12.2775 41.2294 12.4397L40.1619 14.2769L41.7798 16.0287L41.7753 16.0278ZM32.2256 16.2967C32.2535 16.2978 32.2814 16.2931 32.3075 16.2829C32.3336 16.2727 32.3572 16.2572 32.3771 16.2374C32.3969 16.2177 32.4124 16.194 32.4226 16.168C32.4329 16.1419 32.4377 16.1141 32.4366 16.0861V9.91243H34.5337C34.5616 9.91344 34.5895 9.90868 34.6155 9.89846C34.6415 9.88823 34.6651 9.87275 34.6849 9.85299C34.7046 9.83323 34.7201 9.8096 34.7303 9.78359C34.7406 9.75758 34.7453 9.72975 34.7443 9.70182V8.85079C34.7454 8.82282 34.7407 8.79494 34.7305 8.76887C34.7203 8.74281 34.7048 8.71913 34.685 8.69932C34.6653 8.67951 34.6416 8.66399 34.6156 8.65373C34.5895 8.64348 34.5617 8.63871 34.5337 8.63973H28.9489C28.921 8.63871 28.8931 8.64348 28.867 8.65373C28.841 8.66399 28.8173 8.67951 28.7976 8.69932C28.7778 8.71913 28.7623 8.74281 28.7521 8.76887C28.742 8.79494 28.7372 8.82282 28.7383 8.85079V9.70227C28.7373 9.7302 28.7421 9.75804 28.7523 9.78405C28.7625 9.81006 28.778 9.83368 28.7978 9.85344C28.8175 9.87321 28.8411 9.88868 28.8671 9.89891C28.8932 9.90913 28.921 9.91389 28.9489 9.91288H31.046V16.0856C31.045 16.1136 31.0497 16.1414 31.06 16.1674C31.0702 16.1934 31.0857 16.217 31.1054 16.2368C31.1252 16.2566 31.1488 16.2721 31.1748 16.2823C31.2008 16.2925 31.2287 16.2973 31.2566 16.2962L32.2256 16.2967Z"
    fill="black" />
  <path
    d="M5.09747 18.3181C6.50138 19.4087 8.22865 20.0005 10.0064 20C12.0291 20 13.8731 19.249 15.2803 18.0166C15.2973 18.0015 15.289 17.9917 15.272 18.0015C14.6403 18.4231 12.8406 19.3438 10.0064 19.3438C7.54326 19.3438 5.98678 18.7941 5.10767 18.3037C5.09067 18.2954 5.085 18.3075 5.09709 18.3189L5.09747 18.3181ZM10.5497 18.728C12.5198 18.728 14.6846 18.1908 15.9792 17.1281C16.3336 16.8383 16.6706 16.453 16.9728 15.935C17.1577 15.6137 17.319 15.2793 17.4556 14.9346C17.4617 14.9176 17.4518 14.9093 17.4386 14.9286C16.2346 16.7038 12.7476 17.8054 9.15112 17.8054C6.60635 17.8054 3.86853 16.9917 2.79675 15.4379C2.78617 15.4235 2.77559 15.4295 2.78164 15.4462C3.77673 17.5689 6.8062 18.728 10.5489 18.728H10.5497ZM8.3963 15.207C4.29883 15.207 2.36683 13.2992 2.01662 11.9966C2.01284 11.9777 2 11.9815 2 11.9989C2 12.4371 2.04382 13.003 2.11938 13.3785C2.15527 13.5614 2.30827 13.8481 2.5221 14.0774C3.51568 15.1096 5.98867 16.5595 10.2728 16.5595C16.1096 16.5595 17.4439 14.6154 17.7163 13.9754C17.9112 13.5221 18.0121 12.6917 18.0121 11.9977C18.0122 11.8531 18.0087 11.7085 18.0015 11.564C18.0015 11.5425 17.989 11.5414 17.9849 11.5618C17.6932 13.1258 12.7065 15.2063 8.39743 15.2063L8.3963 15.207ZM2.76842 8.56479C2.51886 9.09555 2.32698 9.65156 2.19607 10.2233C2.15829 10.3971 2.17643 10.4813 2.23385 10.6113C2.72497 11.6532 5.20892 13.32 11.003 13.32C14.538 13.32 17.2841 12.4511 17.7288 10.8666C17.8107 10.575 17.8149 10.2667 17.7099 9.85191C17.5965 9.38799 17.3721 8.847 17.1855 8.46732C17.1795 8.45485 17.1685 8.45674 17.1704 8.4711C17.2395 10.5497 11.4431 11.8893 8.51832 11.8893C5.35021 11.8893 2.70797 10.6275 2.70797 9.03325C2.70797 8.88024 2.73971 8.73102 2.78353 8.56743C2.78731 8.55232 2.77522 8.55043 2.76842 8.56366V8.56479ZM15.2939 6.01247C15.3291 6.06761 15.3467 6.1322 15.3442 6.19758C15.3442 7.08689 12.623 8.65962 8.2909 8.65962C5.10805 8.65962 4.51228 7.47903 4.51228 6.72799C4.51228 6.46354 4.61504 6.18512 4.84209 5.90593C4.85455 5.88931 4.84397 5.88326 4.82962 5.89535C4.41531 6.24619 4.03784 6.63835 3.70306 7.06574C3.54363 7.2671 3.44503 7.44541 3.44503 7.55232C3.44503 9.1088 7.34681 10.2369 10.9955 10.2369C14.8867 10.2369 16.6177 8.96751 16.6177 7.85682C16.6177 7.45826 16.4666 7.22592 16.0661 6.77446C15.8085 6.48092 15.5648 6.24556 15.3105 6.0068C15.2981 5.9966 15.2894 6.00491 15.2981 6.01738L15.2939 6.01247ZM14.1062 5.12845C12.9063 4.40914 11.513 4 10.011 4C8.4983 4 7.06347 4.42312 5.85531 5.16169C5.49414 5.38383 5.2909 5.56215 5.2909 5.79108C5.2909 6.46619 6.86853 7.19192 9.66679 7.19192C12.436 7.19192 14.5844 6.39705 14.5844 5.63166C14.5844 5.44919 14.4246 5.32112 14.1016 5.12845"
    fill="#00A8E0" />
</svg>
