<svg width="175" height="24" viewBox="0 0 175 24" fill="none" xmlns="http://www.w3.org/2000/svg">
<mask id="mask0_150_53" style="mask-type:alpha" maskUnits="userSpaceOnUse" x="5" y="4" width="26" height="16">
<path d="M5 4.00113H30.1689V20H5V4.00113Z" fill="white"/>
</mask>
<g mask="url(#mask0_150_53)">
<path fill-rule="evenodd" clip-rule="evenodd" d="M30.1683 4.27015V4.00216H25.9943V4.27015L26.3377 4.27175C27.2195 4.27175 27.4127 4.48934 27.4298 5.1989V12.0889H19.555V5.30929C19.555 4.53494 19.7158 4.28695 20.5691 4.27175H21.0822V4.00296H18.787H16.8895V4.27175V4.27255C16.8985 4.27255 17.2297 4.27175 17.2297 4.27175C18.0968 4.28295 18.26 4.52694 18.2617 5.29889V19.6109C17.0511 19.6109 16.7742 18.9045 16.2773 17.8614C14.7307 14.6208 13.7872 12.6729 9.83726 12.2249H10.6597C12.8941 12.2177 16.0305 11.4274 16.0305 8.14594C16.0305 4.41094 11.7258 4.00376 10.6135 4.00056C10.6135 4.00056 7.23022 4.00296 4.99908 4.00296V4.27175V4.27255C5.01126 4.27175 5.06729 4.27175 5.27838 4.27175C6.20234 4.27175 6.3704 4.51014 6.37121 5.30449V18.7526C6.34605 19.3933 6.14875 19.6061 5.35551 19.6173L4.99908 19.6181V19.9997H9.30628V19.6181L8.68516 19.6173C7.83996 19.6013 7.68408 19.3509 7.68408 18.5806H7.68083L7.68245 12.3937H8.80127C9.99802 12.3937 11.0852 12.4841 11.8662 13.1025C14.0511 14.832 14.1737 19.9997 17.8305 19.9997H21.1577V19.6181H20.6373C19.7247 19.6149 19.555 19.3733 19.555 18.5806V12.3913H27.4298V18.6902C27.4127 19.4005 27.2195 19.6181 26.3377 19.6181H25.9943V19.9997H30.1683V19.6181H29.8192C28.9756 19.6181 28.7613 19.4189 28.7304 18.7805V5.1085C28.7613 4.47014 28.9756 4.27175 29.8192 4.27175L30.1683 4.27015ZM7.68326 12.0889L7.68083 5.28929C7.68326 4.54213 7.83996 4.29335 8.65431 4.27335H9.39559H10.0224H10.0216C13.2246 4.27335 14.7428 5.86366 14.7428 8.17233C14.7428 10.3562 13.0833 12.0897 10.6476 12.0897L7.68326 12.0889Z" fill="black"/>
</g>
<path fill-rule="evenodd" clip-rule="evenodd" d="M160.636 19.6603C158.589 19.6603 157.753 19.0795 157.753 17.6524V6.50038C157.753 4.93389 158.58 4.64758 160.211 4.64758C165.109 4.64758 167.698 7.35632 167.698 12.4822C167.698 16.8429 164.926 19.6603 160.636 19.6603ZM160.748 4.34478C159.493 4.34478 158.338 4.37925 157.22 4.41223C156.309 4.43921 155.366 4.46695 154.361 4.47669L154.243 4.47819V4.75326L154.359 4.75626C155.116 4.77575 155.889 4.95413 155.889 6.12787V18.1793C155.889 19.3118 155.39 19.5299 154.405 19.5524L154.288 19.5554V19.8312H154.629C155.601 19.8312 156.525 19.8635 157.418 19.8957C158.328 19.9272 159.271 19.9624 160.278 19.9624C163.811 19.9624 169.74 18.9618 169.74 12.2641C169.74 8.65148 168.181 4.34478 160.748 4.34478ZM153.626 14.9946H153.891L152.696 19.832H140.315V19.5314L140.432 19.5292C141.589 19.5074 142.073 19.3148 142.073 18.1793V6.12862C142.073 4.95563 141.265 4.7765 140.477 4.75551L140.36 4.75251V4.47594H146.051V4.75176L145.935 4.75551C144.496 4.80048 143.936 5.24644 143.936 6.34598V17.6764C143.936 19.5082 144.645 19.5082 146.753 19.5082C149.754 19.5082 150.749 19.2556 152.018 17.477C152.541 16.732 153.115 15.8483 153.592 15.0531L153.626 14.9946ZM132.19 4.33728H138.155V4.6146L138.039 4.61685C136.799 4.64008 136.083 4.87318 136.083 5.98921V18.0399C136.083 19.1559 136.799 19.389 138.039 19.4122L138.155 19.4145V19.6918H132.19V19.4145L132.307 19.4122C133.519 19.389 134.218 19.1567 134.218 18.0399V5.98921C134.218 4.87243 133.519 4.64008 132.307 4.61685L132.19 4.6146V4.33728ZM124.768 4.33803H130.3V4.6146L130.184 4.6176C129.355 4.63859 128.588 4.81697 128.588 5.96747V18.0624C128.588 19.1687 129.132 19.3913 130.139 19.413L130.255 19.416V19.6926H124.768V19.416L124.884 19.413C126.049 19.389 126.724 19.1597 126.724 18.0624V12.058H118.424V18.0624C118.424 19.1979 118.94 19.3913 120.175 19.413L120.293 19.4152V19.6926H114.848V19.416L114.965 19.413C115.793 19.392 116.56 19.2129 116.56 18.0624V5.96747C116.56 4.81772 115.826 4.63859 115.032 4.6176L114.914 4.61385V4.33803H120.537V4.61535L120.419 4.6176C119.096 4.64158 118.424 4.85744 118.424 5.96747V11.7185H126.724V5.96747C126.724 4.87093 126.049 4.64158 124.884 4.6176L124.768 4.6146V4.33803ZM113.066 14.5704H113.349V19.4737H113.026L112.365 18.3202C110.645 19.4647 109.049 19.9991 107.356 19.9991C102.727 19.9991 99.8507 16.9981 99.8507 12.1674C99.8507 7.51672 103.091 4.14016 107.555 4.14016C109.3 4.14016 110.723 4.80498 112.309 5.80858L113.057 4.79748H113.282V9.89792H113.014L112.999 9.79749C112.621 7.32634 110.968 4.44146 107.555 4.44146C103.644 4.44146 101.892 8.3884 101.892 12.2994C101.892 15.9765 103.793 19.6978 107.423 19.6978C110.774 19.6978 112.525 17.0977 113.045 14.6641L113.066 14.5704ZM38.9182 19.4572C37.4576 19.4572 37.0126 19.1154 37.0126 17.9964V11.9793H38.6724C40.3164 11.9793 42.8009 11.9793 42.8009 15.6302C42.8009 18.0616 41.3859 19.4572 38.9182 19.4572ZM37.0126 4.63933C37.5504 4.63933 38.0624 4.64008 38.5568 4.65807C40.7812 4.74127 41.9572 5.921 41.9572 8.06911C41.9572 11.1713 39.844 11.6338 38.5834 11.6338H37.0126V4.63933ZM40.5187 11.6848C42.6715 11.1234 43.9313 9.73752 43.9313 7.87348C43.9313 6.68026 43.2276 5.49303 42.2189 4.98561C40.8808 4.3148 39.4948 4.3148 38.0281 4.3148C36.423 4.3148 35.1557 4.3148 33.6205 4.33803L33.5019 4.34028V4.60786L33.6129 4.61685C34.7745 4.70304 35.1488 4.81472 35.1488 5.81307V18.3247C35.1488 19.0735 34.7342 19.3673 33.6175 19.4137L33.5019 19.419V19.6926H33.6221C34.4246 19.6926 35.1884 19.7143 35.9285 19.736C36.6923 19.7578 37.4819 19.781 38.3377 19.781C42.5932 19.781 44.8426 18.3075 44.8426 15.5215C44.8426 13.4274 43.1713 11.9741 40.5187 11.6848ZM83.1698 4.6116C82.5353 4.79898 82.0477 5.42333 81.3707 6.51012L77.7618 12.3331V18.0406C77.7618 19.2144 78.5796 19.3935 79.3806 19.4122L79.497 19.4152V19.6926H74.2526V19.416L74.3698 19.4122C75.1252 19.3928 75.8981 19.2136 75.8981 18.0406V12.6809L72.3547 6.52886C71.5369 5.11977 71.276 4.77425 70.586 4.61385L70.494 4.59212V4.33728H75.6044V4.6131L75.4888 4.61685C73.9795 4.67381 73.9796 5.16924 73.9796 5.33189C73.9796 5.56873 74.3173 6.32574 74.7646 7.09099L77.6219 11.9171L80.009 8.05337C80.8237 6.73572 81.2368 5.83556 81.2368 5.37536C81.2368 4.79523 80.864 4.70679 79.8766 4.61685L79.7678 4.60636V4.33728H83.2557V4.58687L83.1698 4.6116ZM64.8259 19.4572C63.3645 19.4572 62.9195 19.1154 62.9195 17.9964V11.9793H64.5794C66.2241 11.9793 68.7093 11.9793 68.7093 15.6302C68.7093 18.0616 67.2936 19.4572 64.8259 19.4572ZM62.9195 4.63933C63.4581 4.63933 63.9693 4.64008 64.4638 4.65807C66.6888 4.74127 67.8642 5.921 67.8642 8.06911C67.8642 11.1713 65.7516 11.6338 64.4911 11.6338H62.9195V4.63933ZM66.4264 11.6848C68.5792 11.1234 69.839 9.73752 69.839 7.87348C69.839 6.68026 69.1353 5.49303 68.1281 4.98561C66.7885 4.3148 65.4025 4.3148 63.9351 4.3148C62.3307 4.3148 61.0634 4.3148 59.5282 4.33803L59.4096 4.34028V4.60786L59.5206 4.61685C60.6815 4.70304 61.0565 4.81472 61.0565 5.81307V18.3247C61.0565 19.0735 60.6412 19.3673 59.5244 19.4137L59.4096 19.419V19.6926H59.5298C60.3323 19.6926 61.0976 19.7143 61.8378 19.736C62.6015 19.7578 63.3919 19.781 64.247 19.781C68.5016 19.781 70.7518 18.3075 70.7518 15.5215C70.7518 13.4274 69.0798 11.9741 66.4264 11.6848ZM49.3339 11.7185L51.2341 6.68925L53.1884 11.7185H49.3339ZM59.2764 19.4137C58.3963 19.2938 58.0654 18.9101 57.415 17.2521L52.255 4.20836L52.1721 4L52.0451 4.18438C51.6982 4.6858 51.3734 5.0793 50.8249 5.49603L50.7496 5.55374L51.0577 6.20732L46.7391 17.5392C46.2788 18.7527 45.8521 19.2436 45.1104 19.4152L45.0176 19.437V19.6926H48.8835V19.419L48.3236 19.392C48.0429 19.38 47.1255 19.2728 47.1255 18.3697C47.1255 18.1328 47.1772 17.4463 47.6512 16.1743L49.2061 12.058H53.32L54.9449 16.2411C55.2233 16.9921 55.6045 18.0211 55.6045 18.3907C55.6045 19.093 55.0971 19.3898 53.8541 19.4122L53.7369 19.4145V19.6926H59.3807V19.4272L59.2764 19.4137ZM91.0051 17.3031C90.9899 17.3151 90.9739 17.3271 90.9397 17.3548C90.0147 18.0421 89.0866 18.3614 88.0178 18.3614C85.7752 18.3614 84.6029 16.3153 84.6029 14.2938C84.6029 13.6028 84.7711 13.0092 85.1157 12.4807C85.2594 12.2716 85.5926 11.8961 85.6931 11.7957C86.148 11.364 86.6888 11.0462 87.1293 10.8131C88.548 12.6366 90.5654 14.9736 91.9089 16.4749C91.5741 16.8197 91.2851 17.0858 91.0051 17.3031ZM86.8927 6.77845C86.8927 5.50277 87.8497 4.83646 88.7953 4.83646C90.0307 4.83646 91.0348 5.80558 91.0348 6.99655C91.0348 7.59691 90.8469 8.06536 90.4285 8.51507C90.3395 8.60501 90.2216 8.71444 90.1843 8.74517C89.7286 9.12742 89.114 9.4632 88.5579 9.74427C88.0459 9.05922 87.6382 8.4611 87.3476 7.96493C87.337 7.93794 87.321 7.91621 87.3088 7.89972C87.1529 7.62989 87.0289 7.38405 86.9452 7.18393C86.9094 7.04677 86.8927 6.91411 86.8927 6.77845ZM99.3981 17.7161L99.3532 17.821C99.1547 18.285 98.7112 18.65 98.2015 18.7752C97.5237 18.9363 96.8824 18.6013 95.3374 17.2709C94.7418 16.7125 94.0761 16.0529 93.4075 15.3574C94.3249 14.1207 95.0856 13.1201 95.7725 12.4418C96.3218 12.0048 96.9121 11.7657 97.6895 11.6668L97.7938 11.6533V11.3887H93.0157V11.6585L93.126 11.6675C93.3672 11.6855 94.5721 11.8152 94.5721 12.537C94.5721 12.8173 94.5584 13.0908 94.3827 13.3682C94.2116 13.6365 93.4448 14.6791 93.1374 15.0748C91.4905 13.3427 89.9059 11.5101 88.7603 10.0096C89.3118 9.73528 89.9447 9.395 90.5586 8.94529C91.702 8.17929 92.3622 7.52496 92.3622 6.44866C92.3622 5.00285 90.9679 4.13941 89.6199 4.13941C88.5883 4.13941 87.4206 4.95488 86.968 5.3034C86.0057 6.02144 85.4747 6.94184 85.4747 7.89522C85.4747 8.22875 85.5668 8.55105 85.7562 8.87633C85.9722 9.25334 86.3632 9.81248 86.9201 10.5403C86.3001 10.8491 85.6086 11.2193 85.0312 11.6555C83.544 12.7701 82.851 14.081 82.851 15.7831C82.851 18.186 84.6136 19.9984 86.9513 19.9984C89.0493 19.9984 90.3365 18.9108 91.3208 17.8465L91.2326 17.7678L91.3414 17.8225C91.3984 17.7618 91.4562 17.6989 91.5171 17.6299C91.7483 17.3698 91.9849 17.0985 92.2185 16.8204C93.002 17.6854 93.6144 18.3 93.7399 18.4019C95.2035 19.6918 96.0601 20.2592 97.6089 19.8837C98.483 19.6716 99.2057 18.9813 99.6476 17.9395L99.694 17.8278L99.3981 17.7161Z" fill="#939597"/>
</svg>
