<svg width="37" height="24" viewBox="0 0 37 24" fill="none" xmlns="http://www.w3.org/2000/svg">
<mask id="mask0_150_26" style="mask-type:alpha" maskUnits="userSpaceOnUse" x="6" y="4" width="25" height="16">
<path d="M6 4H30.6507V20H6V4Z" fill="white"/>
</mask>
<g mask="url(#mask0_150_26)">
<path fill-rule="evenodd" clip-rule="evenodd" d="M30.6499 4.26945V4.00145H26.5618V4.26945L26.8982 4.27105C27.7618 4.27105 27.951 4.48865 27.9677 5.19826V12.0888H20.2551V5.30867C20.2551 4.53426 20.4126 4.28625 21.2483 4.27105H21.7509V4.00225H19.5029H17.6445V4.27105V4.27185C17.6532 4.27185 17.9777 4.27105 17.9777 4.27105C18.827 4.28225 18.9868 4.52626 18.9884 5.29827V19.6113C17.8027 19.6113 17.5316 18.9049 17.0449 17.8617C15.5301 14.6208 14.606 12.6728 10.7374 12.2248H11.543C13.7313 12.2176 16.8032 11.4272 16.8032 8.14551C16.8032 4.41025 12.587 4.00305 11.4976 3.99985C11.4976 3.99985 8.18404 4.00225 5.99884 4.00225V4.27105V4.27185C6.01077 4.27105 6.06564 4.27105 6.27239 4.27105C7.17732 4.27105 7.34193 4.50945 7.34272 5.30387V18.7529C7.31807 19.3937 7.12484 19.6065 6.34793 19.6177L5.99884 19.6185V20.0001H10.2174V19.6185L9.60903 19.6177C8.78123 19.6017 8.62856 19.3513 8.62856 18.5809H8.62537L8.62696 12.3936H9.72275C10.8949 12.3936 11.9596 12.484 12.7246 13.1024C14.8645 14.832 14.9846 20.0001 18.5661 20.0001H21.8248V19.6185H21.3151C20.4213 19.6153 20.2551 19.3737 20.2551 18.5809V12.3912H27.9677V18.6905C27.951 19.4009 27.7618 19.6185 26.8982 19.6185H26.5618V20.0001H30.6499V19.6185H30.308C29.4818 19.6185 29.2719 19.4193 29.2416 18.7809V5.10786C29.2719 4.46945 29.4818 4.27105 30.308 4.27105L30.6499 4.26945ZM8.62776 12.0888L8.62537 5.28867C8.62776 4.54146 8.78123 4.29265 9.57882 4.27265H10.3048H10.9187H10.9179C14.055 4.27265 15.542 5.86307 15.542 8.17191C15.542 10.3559 13.9166 12.0896 11.531 12.0896L8.62776 12.0888Z" fill="black"/>
</g>
</svg>
